<?xml version="1.0" encoding="UTF-8" standalone="no"?>
<svg width="64px" height="64px" viewBox="0 0 64 64" version="1.1" xmlns="http://www.w3.org/2000/svg" xmlns:xlink="http://www.w3.org/1999/xlink">
    <!-- Generator: Sketch 3.6.1 (26313) - http://www.bohemiancoding.com/sketch -->
    <title>18_designer_tools</title>
    <desc>Created with Sketch.</desc>
    <defs></defs>
    <g id="Page-1" stroke="none" stroke-width="1" fill="none" fill-rule="evenodd">
        <g id="Artboard-1" transform="translate(-579.000000, -231.000000)">
            <g id="18_designer_tools" transform="translate(579.000000, 231.000000)">
                <g id="Group">
                    <g id="_x31_8_x5F_designer_x5F_tools" transform="translate(1.000000, 0.000000)" stroke-width="2" stroke="#33373D">
                        <g id="Group">
                            <path d="M62,21 L62,63 L54,63 L54,21" id="Shape"></path>
                            <path d="M58,21 L58,63" id="Shape"></path>
                            <rect id="Rectangle-path" x="0" y="1" width="8" height="62"></rect>
                            <g transform="translate(14.000000, 1.000000)">
                                <rect id="Rectangle-path" x="0" y="0" width="4" height="59"></rect>
                                <path d="M2,59 L2,63" id="Shape"></path>
                                <path d="M0,54 L4,54" id="Shape"></path>
                                <path d="M0,50 L4,50" id="Shape"></path>
                                <path d="M0,46 L4,46" id="Shape"></path>
                                <path d="M0,6 L4,6" id="Shape"></path>
                            </g>
                            <path d="M4,60 L4,58" id="Shape"></path>
                            <path d="M8,49 L5,49" id="Shape"></path>
                            <path d="M8,55 L5,55" id="Shape"></path>
                            <path d="M8,43 L5,43" id="Shape"></path>
                            <path d="M8,37 L5,37" id="Shape"></path>
                            <path d="M8,31 L5,31" id="Shape"></path>
                            <path d="M8,25 L5,25" id="Shape"></path>
                            <path d="M8,19 L5,19" id="Shape"></path>
                            <path d="M8,13 L5,13" id="Shape"></path>
                            <path d="M8,7 L5,7" id="Shape"></path>
                            <rect id="Rectangle-path" x="24" y="1" width="4" height="4"></rect>
                            <rect id="Rectangle-path" x="44" y="1" width="4" height="4"></rect>
                            <rect id="Rectangle-path" x="24" y="21" width="4" height="4"></rect>
                            <rect id="Rectangle-path" x="44" y="21" width="4" height="4"></rect>
                            <path d="M31,3 L33,3" id="Shape"></path>
                            <path d="M35,3 L37,3" id="Shape"></path>
                            <path d="M39,3 L41,3" id="Shape"></path>
                            <path d="M31,23 L33,23" id="Shape"></path>
                            <path d="M35,23 L37,23" id="Shape"></path>
                            <path d="M39,23 L41,23" id="Shape"></path>
                            <g transform="translate(26.000000, 8.000000)" id="Shape">
                                <path d="M0,0 L0,2"></path>
                                <path d="M0,4 L0,6"></path>
                                <path d="M0,8 L0,10"></path>
                            </g>
                            <g transform="translate(46.000000, 8.000000)" id="Shape">
                                <path d="M0,0 L0,2"></path>
                                <path d="M0,4 L0,6"></path>
                                <path d="M0,8 L0,10"></path>
                            </g>
                            <circle id="Oval" cx="36" cy="13" r="6"></circle>
                            <path d="M62,21 L54,21 L54,13 L56,6 L56,4 L60,4 L60,6 L62,13 L62,21 Z" id="Shape"></path>
                            <path d="M58,4 L58,0" id="Shape"></path>
                            <path d="M54,13 L62,13" id="Shape"></path>
                            <path d="M24,45 L24,34 C24,32.344 25.343,31 27,31 L27,31 C28.657,31 30,32.344 30,34 L30,45" id="Shape"></path>
                            <path d="M22,45 L32,45" id="Shape"></path>
                            <path d="M25,64 L25,45" id="Shape"></path>
                            <path d="M29,64 L29,45" id="Shape"></path>
                            <g transform="translate(36.000000, 31.000000)" id="Shape">
                                <path d="M12,30 C12,31.104 11.104,32 10,32 L2,32 C0.896,32 0,31.104 0,30 L0,2 C0,0.896 0.896,0 2,0 L10,0 C11.104,0 12,0.896 12,2 L12,30 L12,30 Z"></path>
                                <path d="M0,16 L12,16"></path>
                            </g>
                        </g>
                    </g>
                    <g id="Layer_1"></g>
                </g>
            </g>
        </g>
    </g>
</svg>