<?xml version="1.0" encoding="UTF-8" standalone="no"?>
<svg width="24px" height="24px" viewBox="0 0 24 24" version="1.1" xmlns="http://www.w3.org/2000/svg" xmlns:xlink="http://www.w3.org/1999/xlink" xmlns:sketch="http://www.bohemiancoding.com/sketch/ns">
    <!-- Generator: Sketch 3.4.4 (17249) - http://www.bohemiancoding.com/sketch -->
    <title>dribbble</title>
    <desc>Created with Sketch.</desc>
    <defs></defs>
    <g id="Page-1" stroke="none" stroke-width="1" fill="none" fill-rule="evenodd" sketch:type="MSPage">
        <g id="Artboard-1" sketch:type="MSArtboardGroup" transform="translate(-379.000000, -105.000000)" fill="#555555">
            <g id="dribbble" sketch:type="MSLayerGroup" transform="translate(379.000000, 105.000000)">
                <g id="dribbble_1_" sketch:type="MSShapeGroup">
                    <g id="Page-1">
                        <path d="M11.99925,0 C5.3715,0 0,5.373 0,12 C0,18.627 5.3715,24 11.99925,24 C18.627,24 23.99925,18.627 24,12 C23.99925,5.373 18.627,0 11.99925,0 L11.99925,0 L11.99925,0 Z M19.353,6.22275 C20.52375,7.70775 21.2565,9.54975 21.34875,11.5605 C19.9935,11.27325 18.714,11.133 17.52075,11.133 L17.52075,11.133 L17.5125,11.133 C16.55175,11.133 15.65025,11.21925 14.8005,11.37 C14.59425,10.863 14.38425,10.377 14.1735,9.91275 C16.06575,9.08175 17.88225,7.89975 19.353,6.22275 L19.353,6.22275 L19.353,6.22275 Z M11.99925,2.6385 C14.208,2.6385 16.23375,3.41025 17.83725,4.6965 C16.61025,6.16425 14.9895,7.22925 13.23975,7.98075 C12.00975,5.60175 10.821,3.90225 10.0095,2.86275 C10.653,2.71875 11.31675,2.6385 11.99925,2.6385 L11.99925,2.6385 L11.99925,2.6385 Z M7.8645,3.6135 C8.514,4.38075 9.816,6.06975 11.205,8.70525 C8.37825,9.5475 5.5335,9.744 3.8115,9.744 L3.66675,9.744 L3.6645,9.744 C3.37425,9.744 3.12525,9.738 2.91675,9.732 C3.58875,7.04475 5.43,4.8195 7.8645,3.6135 L7.8645,3.6135 L7.8645,3.6135 Z M2.63775,12 C2.63775,11.95575 2.63925,11.91225 2.64225,11.865 C2.90925,11.8755 3.25125,11.88375 3.6645,11.88375 L3.66675,11.88375 C5.5485,11.87025 8.835,11.7135 12.16425,10.6635 C12.34575,11.05875 12.525,11.472 12.7035,11.9025 C10.47975,12.645 8.7285,13.83 7.43325,15.01125 C6.18675,16.14675 5.34375,17.27175 4.85175,18.02325 C3.47325,16.39125 2.6385,14.2965 2.63775,12 L2.63775,12 L2.63775,12 Z M11.99925,21.363 C9.9165,21.363 7.99575,20.6745 6.438,19.51725 C6.76875,18.972 7.47975,17.925 8.61,16.84275 C9.77325,15.72975 11.37825,14.58075 13.4745,13.89825 C14.187,15.89625 14.832,18.1785 15.32325,20.7495 C14.289,21.14325 13.17075,21.363 11.99925,21.363 L11.99925,21.363 L11.99925,21.363 Z M17.298,19.701 C16.82325,17.376 16.2255,15.27975 15.57,13.40925 C16.17825,13.323 16.81575,13.27275 17.49075,13.27275 L17.514,13.27275 L17.5155,13.27275 L17.51775,13.27275 C18.63375,13.27275 19.8615,13.41225 21.19125,13.71375 C20.73225,16.1895 19.2975,18.3225 17.298,19.701 L17.298,19.701 L17.298,19.701 Z" id="dribbble_1_"></path>
                    </g>
                </g>
            </g>
        </g>
    </g>
</svg>