<?xml version="1.0" encoding="UTF-8" standalone="no"?>
<svg width="59px" height="65px" viewBox="0 0 59 65" version="1.1" xmlns="http://www.w3.org/2000/svg" xmlns:xlink="http://www.w3.org/1999/xlink">
    <!-- Generator: Sketch 3.6.1 (26313) - http://www.bohemiancoding.com/sketch -->
    <title>33_atom_energy</title>
    <desc>Created with Sketch.</desc>
    <defs></defs>
    <g id="Page-1" stroke="none" stroke-width="1" fill="none" fill-rule="evenodd">
        <g id="Artboard-1" transform="translate(-342.000000, -227.000000)" stroke-width="2" stroke="#33373D">
            <g id="33_atom_energy" transform="translate(342.000000, 228.000000)">
                <g id="Group">
                    <g id="_x33_3_x5F_atom_x5F_energy" transform="translate(0.000000, 0.094581)">
                        <g id="Group">
                            <g transform="translate(1.008867, 0.000000)">
                                <circle id="Oval" cx="28.2482759" cy="31.2748768" r="4.03546798"></circle>
                                <circle id="Oval" cx="6.05320197" cy="25.2216749" r="3.02660099"></circle>
                                <circle id="Oval" cx="34.3014778" cy="53.4699507" r="3.02660099"></circle>
                                <circle id="Oval" cx="44.3901478" cy="15.1330049" r="3.02660099"></circle>
                                <path d="M32.0163941,59.7400591 C30.8693123,61.5439133 29.5920867,62.5497537 28.2482759,62.5497537 C23.233198,62.5497537 19.1684729,48.5476887 19.1684729,31.2748768 C19.1684729,14.002065 23.233198,0 28.2482759,0 C33.2633537,0 37.3280788,14.002065 37.3280788,31.2748768 C37.3280788,38.5891626 36.598668,45.3172966 35.37693,50.6420966" id="Shape"></path>
                                <path d="M41.3786798,15.4397005 C36.1719172,17.0488433 30.0107665,19.7717754 23.7083744,23.4107586 C8.74990345,32.047669 -1.34381084,42.5691429 1.16322365,46.9123153 C3.67025813,51.2554877 17.8297064,47.7738877 32.7881773,39.1379862 C47.7466483,30.5020847 57.8413714,19.9806108 55.3333281,15.6374384 C54.6442719,14.4459665 53.0805281,13.842664 50.859003,13.7740611" id="Shape"></path>
                                <path d="M7.81670148,27.6792749 C11.8279567,31.425198 17.3252729,35.4546128 23.7083744,39.1389951 C38.6668453,47.7759054 52.8252847,51.2554877 55.3333281,46.9123153 C57.8413714,42.5691429 47.7466483,32.0496867 32.7881773,23.4127764 C17.8286975,14.775866 3.671267,11.294266 1.16221478,15.6374384 C0.52360197,16.7431567 0.703180296,18.2504039 1.57181478,20.0270187" id="Shape"></path>
                            </g>
                            <path d="M0,31.2748768 L2.01773399,31.2748768" id="Shape"></path>
                            <path d="M56.4965517,31.2748768 L58.5142857,31.2748768" id="Shape"></path>
                            <path d="M13.1152709,6.05320197 L15.1330049,6.05320197" id="Shape"></path>
                            <path d="M43.3812808,6.05320197 L45.3990148,6.05320197" id="Shape"></path>
                            <path d="M13.1152709,56.4965517 L15.1330049,56.4965517" id="Shape"></path>
                            <path d="M43.3812808,56.4965517 L45.3990148,56.4965517" id="Shape"></path>
                        </g>
                    </g>
                </g>
            </g>
        </g>
    </g>
</svg>