<?xml version="1.0" encoding="UTF-8" standalone="no"?>
<svg width="64px" height="64px" viewBox="0 0 64 64" version="1.1" xmlns="http://www.w3.org/2000/svg" xmlns:xlink="http://www.w3.org/1999/xlink">
    <!-- Generator: Sketch 3.6.1 (26313) - http://www.bohemiancoding.com/sketch -->
    <title>19_mobile_data_synchronization</title>
    <desc>Created with Sketch.</desc>
    <defs></defs>
    <g id="Page-1" stroke="none" stroke-width="1" fill="none" fill-rule="evenodd">
        <g id="Artboard-1" transform="translate(-457.000000, -368.000000)">
            <g id="19_mobile_data_synchronization" transform="translate(457.000000, 371.000000)">
                <g id="Group">
                    <g id="_x31_9_x5F_mobile_x5F_data_x5F_synchronization" transform="translate(1.000000, 1.035714)" stroke-width="2" stroke="#33373D">
                        <g id="Group">
                            <g id="Shape">
                                <path d="M54,9.32142857 L54,3.10714286 C54,1.39096429 52.656,0 51,0 L3,0 C1.344,0 0,1.39096429 0,3.10714286 L0,42.4642857 C0,44.1804643 1.344,45.5714286 3,45.5714286 L35,45.5714286"></path>
                                <path d="M32,45.5714286 L32,55.9285714"></path>
                                <path d="M22,55.9285714 L22,45.5714286"></path>
                                <path d="M19,55.9285714 L35,55.9285714"></path>
                                <path d="M0,37.2857143 L35,37.2857143"></path>
                                <path d="M26,41.4285714 L28,41.4285714"></path>
                            </g>
                            <g transform="translate(38.000000, 12.428571)" id="Shape">
                                <path d="M0,5.17857143 L0,2.07142857 C0,0.928 0.896,0 2,0 L22,0 C23.104,0 24,0.928 24,2.07142857 L24,41.4285714 C24,42.572 23.104,43.5 22,43.5 L2,43.5 C0.896,43.5 0,42.572 0,41.4285714 L0,15.5357143"></path>
                                <path d="M14,39.3571429 L10,39.3571429"></path>
                            </g>
                            <g transform="translate(24.000000, 17.607143)" id="Shape">
                                <path d="M29,7.25 L7,7.25"></path>
                                <path d="M19,3.10714286 L0,3.10714286"></path>
                                <path d="M3,6.21428571 L0,3.10714286 L3,0"></path>
                                <path d="M29,10.3571429 L26,7.25 L29,4.14285714" transform="translate(27.500000, 7.250000) rotate(-180.000000) translate(-27.500000, -7.250000) "></path>
                            </g>
                            <path d="M38,47.6428571 L62,47.6428571" id="Shape"></path>
                            <path d="M4,34.1785714 L4,4.14285714 L51,4.14285714" id="Shape"></path>
                            <path d="M7,12.4285714 L9,12.4285714" id="Shape"></path>
                            <path d="M11,12.4285714 L13,12.4285714" id="Shape"></path>
                            <path d="M15,12.4285714 L17,12.4285714" id="Shape"></path>
                            <path d="M7,16.5714286 L9,16.5714286" id="Shape"></path>
                            <path d="M11,16.5714286 L13,16.5714286" id="Shape"></path>
                            <path d="M15,16.5714286 L17,16.5714286" id="Shape"></path>
                            <path d="M7,20.7142857 L9,20.7142857" id="Shape"></path>
                            <path d="M11,20.7142857 L13,20.7142857" id="Shape"></path>
                            <path d="M19,12.4285714 L21,12.4285714" id="Shape"></path>
                            <path d="M7,8.28571429 L9,8.28571429" id="Shape"></path>
                            <path d="M11,8.28571429 L13,8.28571429" id="Shape"></path>
                            <path d="M15,8.28571429 L17,8.28571429" id="Shape"></path>
                            <path d="M19,8.28571429 L21,8.28571429" id="Shape"></path>
                            <path d="M23,12.4285714 L25,12.4285714" id="Shape"></path>
                            <path d="M23,8.28571429 L25,8.28571429" id="Shape"></path>
                            <path d="M53,39.3571429 L55,39.3571429" id="Shape"></path>
                            <path d="M57,39.3571429 L59,39.3571429" id="Shape"></path>
                            <path d="M53,35.2142857 L55,35.2142857" id="Shape"></path>
                            <path d="M57,35.2142857 L59,35.2142857" id="Shape"></path>
                            <path d="M49,35.2142857 L51,35.2142857" id="Shape"></path>
                            <path d="M41,39.3571429 L43,39.3571429" id="Shape"></path>
                            <path d="M45,39.3571429 L47,39.3571429" id="Shape"></path>
                            <path d="M49,39.3571429 L51,39.3571429" id="Shape"></path>
                            <path d="M53,43.5 L55,43.5" id="Shape"></path>
                            <path d="M57,43.5 L59,43.5" id="Shape"></path>
                            <path d="M41,43.5 L43,43.5" id="Shape"></path>
                            <path d="M45,43.5 L47,43.5" id="Shape"></path>
                            <path d="M49,43.5 L51,43.5" id="Shape"></path>
                        </g>
                    </g>
                    <g id="Layer_1"></g>
                </g>
            </g>
        </g>
    </g>
</svg>