<?xml version="1.0" encoding="UTF-8" standalone="no"?>
<svg width="24px" height="21px" viewBox="0 0 24 21" version="1.1" xmlns="http://www.w3.org/2000/svg" xmlns:xlink="http://www.w3.org/1999/xlink" xmlns:sketch="http://www.bohemiancoding.com/sketch/ns">
    <!-- Generator: Sketch 3.4.4 (17249) - http://www.bohemiancoding.com/sketch -->
    <title>twitter</title>
    <desc>Created with Sketch.</desc>
    <defs></defs>
    <g id="Page-1" stroke="none" stroke-width="1" fill="none" fill-rule="evenodd" sketch:type="MSPage">
        <g id="Artboard-1" sketch:type="MSArtboardGroup" transform="translate(-299.000000, -105.000000)" fill="#555555">
            <g id="twitter" sketch:type="MSLayerGroup" transform="translate(299.000000, 105.000000)">
                <g id="twitter_1_" sketch:type="MSShapeGroup">
                    <g id="Page-1">
                        <path d="M24,2.82883706 C23.1164448,3.22111158 22.1676355,3.48512808 21.1715732,3.60513558 C22.1878867,2.99609751 22.9686855,2.02853704 23.3369586,0.88021527 C22.3858991,1.44425052 21.3313332,1.85302607 20.2107632,2.07578999 C19.311457,1.11798013 18.031877,0.520192768 16.6157885,0.520192768 C13.8961185,0.520192768 11.6917307,2.72458054 11.6917307,5.44500057 C11.6917307,5.82902457 11.7352335,6.2070482 11.8192387,6.5670707 C7.72698294,6.36080781 4.09825614,4.40093531 1.66960435,1.42249916 C1.24582786,2.14929459 1.00281268,2.99459742 1.00281268,3.89690381 C1.00281268,5.60626065 1.87211701,7.11235478 3.19369961,7.99591 C2.38664917,7.97115845 1.62685168,7.74839453 0.963060191,7.37937147 C0.962310144,7.39962273 0.962310144,7.419874 0.962310144,7.4423754 C0.962310144,9.82902457 2.66041628,11.8181489 4.91280705,12.2711772 C4.49953122,12.3836842 4.06450403,12.4429379 3.615976,12.4429379 C3.29870617,12.4429379 2.98968686,12.4136861 2.6896681,12.3551825 C3.31595725,14.3120548 5.13482093,15.7363938 7.28970561,15.7746462 C5.60435027,17.0962288 3.48096756,17.883778 1.17457341,17.883778 C0.777048566,17.883778 0.384774048,17.8605265 0,17.8132736 C2.17888618,19.2106109 4.76729796,20.0266619 7.54772173,20.0266619 C16.6052878,20.0266619 21.5578474,12.523193 21.5578474,6.01578624 C21.5578474,5.80352298 21.5533471,5.58975962 21.5443465,5.3782464 C22.5059066,4.68370299 23.3392087,3.8166488 24,2.82883706 L24,2.82883706 L24,2.82883706 Z" id="twitter_1_"></path>
                    </g>
                </g>
            </g>
        </g>
    </g>
</svg>